<?xml version="1.0" encoding="UTF-8" standalone="no"?>
<svg
   width="300"
   zoomAndPan="magnify"
   viewBox="0 0 224.87999 225"
   height="300"
   preserveAspectRatio="xMidYMid meet"
   version="1.0"
   id="svg2"
   sodipodi:docname="WLA_icon_image_gallery.svg"
   inkscape:version="1.4.2 (ebf0e940, 2025-05-08)"
   xmlns:inkscape="http://www.inkscape.org/namespaces/inkscape"
   xmlns:sodipodi="http://sodipodi.sourceforge.net/DTD/sodipodi-0.dtd"
   xmlns="http://www.w3.org/2000/svg"
   xmlns:svg="http://www.w3.org/2000/svg">
  <sodipodi:namedview
     id="namedview2"
     pagecolor="#ffffff"
     bordercolor="#000000"
     borderopacity="0.25"
     inkscape:showpageshadow="2"
     inkscape:pageopacity="0.0"
     inkscape:pagecheckerboard="0"
     inkscape:deskcolor="#d1d1d1"
     inkscape:zoom="0.9805214"
     inkscape:cx="134.62225"
     inkscape:cy="-18.35758"
     inkscape:window-width="1680"
     inkscape:window-height="997"
     inkscape:window-x="0"
     inkscape:window-y="25"
     inkscape:window-maximized="0"
     inkscape:current-layer="svg2" />
  <defs
     id="defs1">
    <clipPath
       clipPathUnits="userSpaceOnUse"
       id="clipPath10">
      <path
         id="path11"
         style="stroke-width:0.999997"
         d="M 22.488335,45.035156 V 179.96484 H 202.39019 V 45.035156 Z m 73.832517,36.770509 c 1.05603,0.22098 1.476608,0.24213 1.57617,0.990232 0.06922,2.86e-4 0.137333,0.0015 0.20655,0.0015 0.08146,-0.01207 0.198353,-0.06173 0.234375,-0.0249 6e-4,7.28e-4 0.0037,0.0037 0.0045,0.0045 0.003,0.0052 0.0052,0.01305 0.006,0.02047 0.02918,-0.0023 0.07463,-0.0207 0.09521,-0.01462 3.82e-4,1.72e-4 0.0023,-2.7e-4 0.003,0 v 0.0015 h 0.0015 l 0.0015,0.0015 0.0015,0.0015 v 0.0015 h 0.0015 v 0.0015 l 0.0015,0.0015 v 0.0015 c -6.7e-5,0.0015 -7e-6,0.0045 0,0.006 0.01155,1.356608 0.04147,2.716185 -0.0264,4.070798 -0.0015,0.23655 -0.003,0.47256 -0.0045,0.708982 v 0.0015 0.0015 0.0015 l -0.0015,0.0015 v 0.0015 0.0015 h -0.0015 v 0.0015 l -0.0015,0.0015 -0.0015,0.0015 c -7.5e-4,3.53e-4 -0.0037,0.0015 -0.0045,0.0015 -0.0077,0.0015 -0.02078,-3.52e-4 -0.03225,-0.003 -0.0023,0.0076 -0.006,0.01417 -0.01028,0.01905 -0.04755,0.04193 -0.203798,-0.0294 -0.290033,-0.02933 -0.316732,2.85e-4 -0.63249,-7.5e-5 -0.949222,0 0.235305,0.03668 0.473625,0.07617 0.48633,0.270998 0.02992,0.459022 0.04275,0.92463 0.03075,1.390132 0.232912,0.0366 0.465165,0.07639 0.697267,0.11865 0.198915,0.05108 0.410918,0.0669 0.59766,0.152348 1.473831,0.674362 2.190581,1.287547 1.655271,3.600585 -0.0589,0.254362 -0.20895,0.461145 -0.40576,0.64014 0.12211,0.342195 0.15304,0.74199 0.0307,1.271482 -0.0395,0.17115 -0.0989,0.337478 -0.17285,0.498045 0.32975,0.14793 0.65269,0.311955 0.96826,0.490725 0.20858,0.1296 0.40663,0.273293 0.58594,0.430665 0.14101,0.08096 0.27783,0.166785 0.41894,0.247553 0.23051,0.230535 0.51837,0.41604 0.69287,0.69141 0.74326,1.172842 0.71183,2.342362 -0.0205,3.50243 -0.36697,0.58131 -0.77737,0.89449 -1.27002,1.33008 -0.40691,0.30862 -0.83301,0.59086 -1.27441,0.84668 -0.0592,0.10718 -0.12206,0.21223 -0.187498,0.31494 0.306718,0.28653 0.577348,0.61249 0.873048,0.91114 0.0172,0.73013 0.18782,1.47222 0.0527,2.18994 -0.0668,0.35484 -0.38637,0.61523 -0.62988,0.88183 -0.17346,0.18992 -0.394868,0.33268 -0.609376,0.47461 -0.535657,0.3544 -1.1415,0.58176 -1.741702,0.80274 -0.05925,0.14952 -0.146213,0.31493 -0.244628,0.47754 0.110595,0.23833 0.151763,0.50435 0.228518,0.75586 0.0023,0.26584 0.04342,0.53348 0.0075,0.79687 -0.1074,0.78385 -0.50472,1.38665 -1.067873,1.92041 -0.125422,0.11888 -0.252967,0.21588 -0.385252,0.30322 0.03495,0.30333 0.006,0.67403 -0.08203,1.16309 0.29277,0.31422 0.50436,0.71394 0.600585,1.21728 0.20016,1.04702 -0.12123,1.36878 -0.5625,2.09473 -0.604605,0.71991 -1.40484,1.20917 -2.2251,1.64502 -0.181005,0.0805 -0.357495,0.1734 -0.543457,0.2417 -1.45455,0.53444 -3.024113,0.64396 -4.555665,0.75879 -1.83327,0.1271 -3.667898,-0.003 -5.499023,-0.0996 -0.990682,-0.0671 -1.980877,-0.15325 -2.970705,-0.23145 -0.219825,0.0694 -0.439935,0.1368 -0.662107,0.19922 -1.687553,0.46382 -3.4035,0.88363 -5.165038,0.89063 -0.995883,-0.0129 -2.454162,-0.0271 -3.177246,-0.85254 -0.357344,-0.40794 -0.686466,-0.90882 -0.748535,-1.44727 -0.365158,-0.14907 -0.721917,-0.31674 -1.069336,-0.49951 -0.186895,-0.11439 -0.384971,-0.21233 -0.561035,-0.34277 -0.558274,-0.41362 -1.391359,-1.1319 -1.372559,-1.90869 3.57e-4,-0.0148 -4.01e-4,-0.0294 0,-0.0439 -0.529564,-0.10373 -0.887135,-0.16425 -1.422363,-0.44971 -0.995212,-0.53077 -1.503233,-1.14473 -1.927735,-2.15625 -0.07449,-0.35286 -0.1547,-0.63851 -0.186035,-0.91699 -0.722351,-0.20618 -1.447809,-0.46067 -2.06543,-0.84521 -0.238466,-0.14847 -0.455274,-0.33012 -0.682617,-0.49512 -0.776626,-0.99045 -1.354015,-1.37384 -0.865722,-2.99561 0.138332,-0.45944 0.375983,-0.80247 0.673828,-1.06494 -0.159403,-0.13342 -0.292007,-0.28468 -0.347168,-0.47754 -0.173426,-0.60634 -0.137268,-1.24767 -0.120117,-1.88525 -0.08753,-0.0384 -0.174351,-0.0778 -0.260743,-0.11865 -0.31549,-0.18494 -1.211582,-0.64907 -1.322754,-1.01367 -0.254299,-0.834 -0.530159,-1.7588 -0.295898,-2.59864 0.187135,-0.670878 0.677878,-1.01071 1.227539,-1.202628 0.01807,-0.78825 0.573747,-1.372912 1.138184,-1.79736 0.08643,-0.06502 0.175624,-0.11778 0.268066,-0.164062 -0.537895,-1.295048 -0.567182,-1.186988 1.060547,-1.64502 -0.472833,-1.38624 0.01165,-2.124953 0.818848,-2.834475 -0.404375,-0.734618 -0.624534,-1.586055 -0.695801,-2.416995 -0.03404,-0.396983 0.408009,-0.684765 0.612305,-1.026855 0.362073,-0.357968 0.734465,-0.704738 1.100097,-1.059075 0.531012,-0.484125 1.079651,-0.905678 1.729981,-1.173345 -0.05281,-0.331485 -0.07788,-0.66579 -0.06006,-1.003418 0.01873,-0.3549 1.195416,-0.47892 1.993651,-0.52881 -0.586159,-2.873467 -0.779854,-2.701185 0.862793,-3.060052 0.616959,-0.06668 1.234734,-0.13002 1.854493,-0.16407 1.399142,-0.09008 2.798333,-0.18111 4.201172,-0.17871 2.17173,-0.01087 4.343978,-0.02655 6.515625,-0.0483 0.653925,-0.006 1.307505,-0.01132 1.96143,-0.01613 0.74292,-0.0243 1.48635,-0.04597 2.229488,-0.063 0.264345,-0.0091 0.52812,-0.01485 0.79248,-0.01755 0.06413,-0.07155 0.130417,-0.142133 0.197752,-0.210938 0.1995,-0.203827 0.566693,-0.06337 0.851078,-0.08496 1.373895,-0.104422 2.758372,-0.109777 4.135252,-0.139155 1.49748,0.0098 2.999595,-0.11283 4.495605,-0.01755 z M 67.338921,114.23291 c -0.02998,0.003 -0.06125,0.007 -0.09082,0.0117 h -0.0015 v 0.002 c 0.0083,7.5e-4 0.04148,-0.002 0.0542,-0.005 0.01232,-0.003 0.02552,-0.006 0.03808,-0.009 z m 3.733886,3.10693 c -0.06102,0.009 -0.122157,0.0184 -0.183105,0.0278 0.06176,-7.5e-4 0.121222,-0.008 0.178711,-0.0175 0.0013,-0.004 0.003,-0.007 0.0044,-0.0103 z m 22.608398,0.51123 c 0.0396,0.0124 0.0795,0.0231 0.12012,0.0322 0.0099,-10e-4 0.01732,-0.003 0.02047,-0.004 l 0.0015,-0.002 v -10e-4 l -0.0015,-0.002 c -0.01492,-0.007 -0.07587,-0.0158 -0.140625,-0.0234 z m -19.416503,2.33057 c -0.0085,0.002 -0.0166,0.004 -0.02344,0.006 -0.03713,0.009 -0.0872,0.001 -0.109864,0.0323 l -0.0015,0.001 v 0.002 l -0.0015,0.001 v 0.002 0.001 0.002 h 0.0015 v 0.001 h 0.0015 0.0015 c 0.02029,-6.6e-4 0.08,-0.0243 0.104004,-0.0352 0.0094,-0.005 0.0184,-0.009 0.02783,-0.0132 z" />
    </clipPath>
  </defs>
  <path
     fill="#02679a"
     d="M 179.91406,45.03125 H 29.992188 c -4.140626,0 -7.496094,3.355469 -7.496094,7.496094 V 157.47266 H 33.742188 V 56.277344 H 179.91406 Z M 63.902344,101.25391 c 0,9.3125 7.550781,16.86718 16.867187,16.86718 9.316407,0 16.867188,-7.55468 16.867188,-16.86718 0,-9.31641 -7.550781,-16.867191 -16.867188,-16.867191 -9.316406,0 -16.867187,7.550781 -16.867187,16.867191 z M 191.15625,124.11719 168.79297,101.25391 132.07812,135.8125 112.42969,119.58203 56.230469,168.71875 V 78.765625 H 191.15625 Z M 44.984375,75.015625 v 97.449215 c 0,4.14063 3.355469,7.4961 7.496094,7.4961 H 194.90625 c 4.14062,0 7.49609,-3.35547 7.49609,-7.4961 V 75.015625 c 0,-4.136719 -3.35547,-7.496094 -7.49609,-7.496094 H 52.480469 c -4.140625,0 -7.496094,3.359375 -7.496094,7.496094"
     fill-opacity="1"
     fill-rule="nonzero"
     id="path2"
     clip-path="url(#clipPath10)"
     style="stroke-width:0.99975;stroke-dasharray:none;fill:#02679a;fill-opacity:1" />
  <path
     fill="#00d8ff"
     d="m 93.21031,95.261373 a 25.73747,25.73747 0 0 0 -1.23666,-0.389761 c 0.06972,-0.285155 0.134023,-0.566858 0.191055,-0.843608 0.936205,-4.544617 0.324163,-8.205854 -1.766321,-9.411309 -2.004339,-1.155628 -5.282264,0.04938 -8.592755,2.930491 a 25.69845,25.69845 0 0 0 -0.956765,0.877676 23.392599,23.392599 0 0 0 -0.636494,-0.587869 c -3.469593,-3.080573 -6.947269,-4.378926 -9.0355,-3.17002 -2.002543,1.159228 -2.595521,4.601047 -1.752661,8.908085 a 25.66003,25.66003 0 0 0 0.283957,1.272691 c -0.492263,0.139883 -0.967273,0.288756 -1.421868,0.447243 -4.067818,1.41827 -6.665578,3.640825 -6.665578,5.946228 0,2.38106 2.788814,4.7693 7.025615,6.21742 a 21.839856,21.839856 0 0 0 1.038719,0.32494 25.133694,25.133694 0 0 0 -0.301665,1.37144 c -0.803538,4.23229 -0.176041,7.59277 1.821083,8.74466 2.062725,1.18954 5.524804,-0.0331 8.895776,-2.97987 a 21.846909,21.846909 0 0 0 0.801741,-0.73885 25.223292,25.223292 0 0 0 1.038561,0.94761 c 3.265479,2.80981 6.490423,3.94444 8.485608,2.78941 2.060771,-1.193 2.730586,-4.80306 1.861006,-9.1952 a 21.764214,21.764214 0 0 0 -0.230376,-1.02686 c 0.243137,-0.072 0.481769,-0.14617 0.714383,-0.22331 4.404601,-1.45924 7.270399,-3.81852 7.270399,-6.23139 0,-2.313803 -2.681645,-4.551371 -6.83126,-5.979847 z m -0.955269,10.653397 c -0.210102,0.0695 -0.425622,0.13658 -0.645347,0.20186 -0.486261,-1.53938 -1.142416,-3.17618 -1.945497,-4.86744 0.76631,-1.650913 1.397258,-3.26684 1.869859,-4.796169 0.393057,0.113762 0.774424,0.233675 1.142116,0.360194 3.555438,1.224065 5.724109,3.033602 5.724109,4.428005 0,1.48522 -2.342173,3.41332 -6.14524,4.67355 z m -1.577946,3.12679 c 0.384502,1.94206 0.439281,3.69801 0.184594,5.0708 -0.228722,1.23352 -0.688876,2.05582 -1.257974,2.38525 -1.21071,0.70088 -3.800072,-0.21012 -6.592636,-2.61322 a 23.521668,23.521668 0 0 1 -0.966076,-0.88098 c 1.082689,-1.18399 2.164624,-2.5604 3.22061,-4.08912 1.857398,-0.1648 3.612155,-0.43433 5.203461,-0.80219 a 20.136431,20.136431 0 0 1 0.208021,0.92946 z m -15.957862,7.33493 c -1.182936,0.41768 -2.125144,0.42969 -2.694711,0.10127 -1.211909,-0.69894 -1.715734,-3.39725 -1.028512,-7.01661 a 23.551235,23.551235 0 0 1 0.280507,-1.27556 c 1.573755,0.3482 3.315752,0.59853 5.177513,0.74952 1.063171,1.49587 2.17633,2.87076 3.298185,4.0747 a 20.211172,20.211172 0 0 1 -0.731948,0.67419 c -1.490761,1.30299 -2.984516,2.2275 -4.301034,2.69246 z m -5.541911,-10.47088 c -1.873467,-0.6404 -3.420645,-1.4726 -4.481122,-2.38075 -0.953015,-0.81599 -1.434029,-1.62628 -1.434029,-2.28364 0,-1.399063 2.085679,-3.183529 5.56441,-4.396336 0.422187,-0.147081 0.864019,-0.285905 1.32252,-0.416178 0.48087,1.56385 1.111505,3.198991 1.872568,4.852444 -0.770972,1.67791 -1.410617,3.33916 -1.896122,4.92147 a 20.218674,20.218674 0 0 1 -0.948225,-0.29701 z m 1.857712,-12.645874 c -0.72204,-3.690052 -0.242524,-6.473614 0.96428,-7.172242 1.285291,-0.744104 4.12753,0.316822 7.123309,2.976866 a 21.659458,21.659458 0 0 1 0.576468,0.532038 c -1.116309,1.198701 -2.219259,2.563392 -3.272978,4.050399 -1.806982,0.167491 -3.536675,0.436436 -5.12694,0.796782 a 24.064363,24.064363 0 0 1 -0.264139,-1.183692 z m 16.573039,4.092421 a 52.198335,52.198335 0 0 0 -1.168378,-1.921492 c 1.225865,0.155035 2.400404,0.360797 3.503355,0.612333 -0.331095,1.061376 -0.743813,2.170927 -1.229632,3.308539 a 57.203702,57.203702 0 0 0 -1.105345,-1.99938 z m -6.758468,-6.582721 c 0.757015,0.820194 1.515227,1.735842 2.260979,2.729381 a 48.332236,48.332236 0 0 0 -4.541019,-9.01e-4 c 0.746507,-0.984384 1.511177,-1.89883 2.28004,-2.72848 z m -6.801839,6.593978 a 48.501379,48.501379 0 0 0 -1.084629,1.986783 c -0.477863,-1.13357 -0.886832,-2.248224 -1.220762,-3.324609 1.096192,-0.245233 2.26517,-0.445741 3.483237,-0.597924 a 48.254794,48.254794 0 0 0 -1.177846,1.9356 z m 1.21282,9.808126 c -1.258445,-0.14044 -2.444989,-0.33062 -3.540881,-0.56925 0.339191,-1.0956 0.757158,-2.23397 1.245385,-3.39184 a 48.204217,48.204217 0 0 0 1.089134,1.98798 c 0.389308,0.67237 0.792432,1.33092 1.206362,1.97311 z m 5.634344,4.65703 c -0.778015,-0.83925 -1.553935,-1.7678 -2.311706,-2.76645 0.735699,0.0288 1.485657,0.0435 2.247932,0.0435 0.783121,0 1.557244,-0.0176 2.319206,-0.0515 -0.74816,1.01666 -1.503521,1.94657 -2.255432,2.77442 z m 7.833958,-8.67725 c 0.513579,1.17063 0.946415,2.30299 1.290098,3.37983 -1.1139,0.25423 -2.316655,0.45894 -3.58394,0.61097 a 57.393706,57.393706 0 0 0 1.179486,-1.95495 52.138754,52.138754 0 0 0 1.114356,-2.03585 z m -2.536081,1.21581 a 53.812762,53.812762 0 0 1 -1.843155,2.97386 49.436836,49.436836 0 0 1 -3.518496,0.12348 c -1.195711,0 -2.358686,-0.0373 -3.478589,-0.10979 a 46.555573,46.555573 0 0 1 -1.877973,-2.97853 h 1.57e-4 a 46.136545,46.136545 0 0 1 -1.639341,-3.09572 46.566979,46.566979 0 0 1 1.63438,-3.097241 l -1.42e-4,1.5e-4 a 46.122737,46.122737 0 0 1 1.862958,-2.96576 c 1.142558,-0.08644 2.314245,-0.131471 3.498393,-0.131471 h 1.57e-4 c 1.189537,0 2.362721,0.04548 3.504994,0.132526 a 49.430383,49.430383 0 0 1 1.851254,2.955855 53.802556,53.802556 0 0 1 1.656292,3.082681 49.447642,49.447642 0 0 1 -1.650889,3.10998 z m 3.385842,-18.328562 c 1.28649,0.742002 1.786867,3.734176 0.978524,7.658057 -0.05162,0.250335 -0.1095,0.505324 -0.17259,0.763914 -1.594172,-0.368 -3.325048,-0.641599 -5.137292,-0.81164 -1.055672,-1.503367 -2.149611,-2.870159 -3.247756,-4.053402 a 24.13145,24.13145 0 0 1 0.88368,-0.810439 c 2.836535,-2.468391 5.487576,-3.443019 6.695434,-2.74649 z m -8.747493,11.771789 c 1.894768,0 3.430854,1.53608 3.430854,3.430863 0,1.89478 -1.536086,3.43086 -3.430854,3.43086 -1.894783,0 -3.430868,-1.53608 -3.430868,-3.43086 0,-1.894783 1.536085,-3.430863 3.430868,-3.430863 z"
     id="path1-1"
     style="stroke-width:0.675;fill:#02679a;fill-opacity:1;stroke-dasharray:none;stroke:#02679a;stroke-opacity:1" />
</svg>
